
<svg id="Capa_1" enable-background="new 0 0 510 510" height="512" viewBox="0 0 510 510" width="512" xmlns="http://www.w3.org/2000/svg" xmlns:xlink="http://www.w3.org/1999/xlink"><linearGradient id="lg1"><stop offset="0" stop-color="#d1f19e"/><stop offset="1" stop-color="#97d729"/></linearGradient><linearGradient id="SVGID_1_" gradientUnits="userSpaceOnUse" x1="73.873" x2="234.81" xlink:href="#lg1" y1="289.873" y2="450.81"/><linearGradient id="lg2"><stop offset="0" stop-color="#017b4e" stop-opacity="0"/><stop offset=".4829" stop-color="#01754a" stop-opacity=".483"/><stop offset="1" stop-color="#026841"/></linearGradient><linearGradient id="SVGID_2_" gradientUnits="userSpaceOnUse" x1="137.538" x2="187.038" xlink:href="#lg2" y1="225.422" y2="310.422"/><linearGradient id="SVGID_3_" gradientUnits="userSpaceOnUse" x1="274.239" x2="166.738" xlink:href="#lg2" y1="359.428" y2="251.927"/><linearGradient id="SVGID_4_" gradientUnits="userSpaceOnUse" x1="161" x2="161" xlink:href="#lg2" y1="406.557" y2="554.079"/><linearGradient id="SVGID_5_" gradientTransform="matrix(.966 -.258 .258 .966 -52.113 108.231)" gradientUnits="userSpaceOnUse" x1="276.647" x2="435.752" xlink:href="#lg1" y1="211.12" y2="370.225"/><linearGradient id="SVGID_6_" gradientTransform="matrix(.941 -.337 .337 .941 -51.234 129.328)" gradientUnits="userSpaceOnUse" x1="323.14" x2="372.64" xlink:href="#lg2" y1="165.33" y2="250.33"/><linearGradient id="SVGID_7_" gradientUnits="userSpaceOnUse" x1="441.865" x2="269.532" xlink:href="#lg2" y1="271.599" y2="170.932"/><linearGradient id="SVGID_8_" gradientTransform="matrix(.966 -.258 .258 .966 -52.113 108.231)" gradientUnits="userSpaceOnUse" x1="362.782" x2="362.782" xlink:href="#lg2" y1="326.255" y2="470.997"/><linearGradient id="lg3"><stop offset="0" stop-color="#a2e62e"/><stop offset=".1231" stop-color="#97de30"/><stop offset=".3395" stop-color="#79cb36"/><stop offset=".6234" stop-color="#4aab3f"/><stop offset=".9609" stop-color="#09804c"/><stop offset="1" stop-color="#017b4e"/></linearGradient><linearGradient id="SVGID_9_" gradientTransform="matrix(.707 .707 -.707 .707 87.429 -82.139)" gradientUnits="userSpaceOnUse" x1="124.808" x2="192.137" xlink:href="#lg3" y1="16.27" y2="79.98"/><linearGradient id="SVGID_10_" gradientTransform="matrix(.707 .707 -.707 .707 87.429 -82.139)" gradientUnits="userSpaceOnUse" x1="97.921" x2="274.57" xlink:href="#lg2" y1="41.734" y2="42.458"/><linearGradient id="SVGID_11_" gradientTransform="matrix(.122 -.993 .993 .122 724.519 -200.529)" gradientUnits="userSpaceOnUse" x1="-291.568" x2="-380.171" xlink:href="#lg2" y1="-546.833" y2="-477.761"/><linearGradient id="lg4"><stop offset="0" stop-color="#017b4e" stop-opacity="0"/><stop offset=".8674" stop-color="#016b43" stop-opacity=".867"/><stop offset="1" stop-color="#026841"/></linearGradient><linearGradient id="SVGID_12_" gradientTransform="matrix(.707 .707 -.707 .707 87.429 -82.139)" gradientUnits="userSpaceOnUse" x1="169.43" x2="254.858" xlink:href="#lg4" y1="31.503" y2="3.992"/><linearGradient id="SVGID_13_" gradientTransform="matrix(1 .002 -.002 1 1.314 -.606)" gradientUnits="userSpaceOnUse" x1="99.326" x2="192.326" xlink:href="#lg3" y1="117.93" y2="205.929"/><linearGradient id="SVGID_14_" gradientTransform="matrix(1 .002 -.002 1 1.314 -.606)" gradientUnits="userSpaceOnUse" x1="62.188" x2="306.187" xlink:href="#lg2" y1="153.102" y2="154.102"/><linearGradient id="SVGID_15_" gradientTransform="matrix(-.614 -.79 .79 -.614 369.363 -533.937)" gradientUnits="userSpaceOnUse" x1="-358.577" x2="-480.961" xlink:href="#lg2" y1="-636.08" y2="-540.673"/><linearGradient id="SVGID_16_" gradientTransform="matrix(1 .002 -.002 1 1.314 -.606)" gradientUnits="userSpaceOnUse" x1="160.961" x2="278.961" xlink:href="#lg4" y1="138.97" y2="100.97"/><linearGradient id="SVGID_17_" gradientTransform="matrix(-.966 -.26 -.26 .966 872.676 129.951)" gradientUnits="userSpaceOnUse" x1="433.032" x2="524.331" xlink:href="#lg3" y1="74.987" y2="161.378"/><linearGradient id="SVGID_18_" gradientTransform="matrix(-.966 -.26 -.26 .966 872.676 129.951)" gradientUnits="userSpaceOnUse" x1="395.336" x2="639.595" xlink:href="#lg2" y1="109.335" y2="110.336"/><linearGradient id="SVGID_19_" gradientTransform="matrix(.8 -.601 -.601 -.8 657.425 -481.25)" gradientUnits="userSpaceOnUse" x1="-527.429" x2="-658.39" xlink:href="#lg2" y1="-348.484" y2="-246.391"/><linearGradient id="SVGID_20_" gradientTransform="matrix(-.966 -.26 -.26 .966 872.676 129.951)" gradientUnits="userSpaceOnUse" x1="488.967" x2="603.628" xlink:href="#lg4" y1="102.734" y2="65.809"/><linearGradient id="SVGID_21_" gradientUnits="userSpaceOnUse" x1="213.852" x2="288.852" y1="132.185" y2="192.185"><stop offset="0" stop-color="#c5715a"/><stop offset="1" stop-color="#883f2e"/></linearGradient><linearGradient id="SVGID_22_" gradientUnits="userSpaceOnUse" x1="337.797" x2="262.797" y1="153.287" y2="126.287"><stop offset="0" stop-color="#883f2e" stop-opacity="0"/><stop offset="1" stop-color="#42210b"/></linearGradient><g><g><ellipse cx="161" cy="377" fill="url(#SVGID_1_)" rx="107.245" ry="133"/><ellipse cx="165" cy="272.58" fill="url(#SVGID_2_)" rx="32.738" ry="19.449"/><path d="m182.795 246.751-30.639 30.639 115.338 115.338c.49-5.159.75-10.405.75-15.728.001-64.192-36.67-117.76-85.449-130.249z" fill="url(#SVGID_3_)"/><path d="m54.255 389.845c5.211 67.426 51.01 120.155 106.745 120.155s101.534-52.729 106.745-120.155z" fill="url(#SVGID_4_)"/></g><g><path d="m478.625 274.373c18.565 69.637-12.779 138.458-70.01 153.716s-118.675-28.826-137.241-98.463c-18.565-69.637 12.779-138.458 70.01-153.716 57.231-15.257 118.676 28.826 137.241 98.463z" fill="url(#SVGID_5_)"/><path d="m381.319 200.036c3.624 10.112-7.237 23.254-24.258 29.354s-33.757 2.847-37.38-7.264c-3.624-10.112 7.237-23.254 24.258-29.354 17.021-6.101 33.756-2.848 37.38 7.264z" fill="url(#SVGID_6_)"/><path d="m341.385 175.911c-3.08.821-6.08 1.806-9.006 2.929v37.651l144.074 144.074c8.873-25.668 10.261-55.851 2.172-86.191-18.565-69.638-80.01-113.721-137.24-98.463z" fill="url(#SVGID_7_)"/><path d="m275.104 341.676c22.077 62.58 79.657 100.771 133.511 86.414s84.78-76.144 72.773-141.409z" fill="url(#SVGID_8_)"/></g><g><g><path d="m76.923 60.053c75.12 63.743 148.909 64.557 193.83 26.44 3.375-2.864 6.485-5.868 9.33-8.998-42.195-59.366-114.728-94.658-192.112-69.027-13.859 4.59-25.809 11.069-35.915 18.866-2.423 1.869-2.336 5.411.204 8.341 7.318 8.44 15.525 16.623 24.663 24.378z" fill="url(#SVGID_9_)"/><path d="m88.191 20.482c-13.911 1.718-25.924 4.735-36.1 8.699-2.44.95-2.378 3.116.144 5.098 7.268 5.713 15.428 11.338 24.524 16.774 74.772 44.687 148.66 50.927 193.916 31.198 3.4-1.482 6.536-3.071 9.407-4.756-41.83-39.457-114.215-66.607-191.891-57.013z" fill="url(#SVGID_10_)"/><path d="m87.971 8.468c-13.859 4.59-25.809 11.069-35.915 18.866-1.025.791-1.573 1.888-1.704 3.105l229.73 47.056c-42.194-59.366-114.727-94.658-192.111-69.027z" fill="url(#SVGID_11_)"/></g><path d="m154.847.776 17.701 108.832c38.594 7.431 72.958-1.693 98.204-23.116 3.375-2.864 6.485-5.868 9.33-8.998-29.685-41.766-74.39-71.617-125.235-76.718z" fill="url(#SVGID_12_)"/></g><g><g><path d="m56.282 244.123c135.654-10.788 208.69-81.89 215.528-162.977.514-6.092.631-12.064.367-17.9-99.154-17.008-204.555 19.114-255.341 119.609-9.095 17.998-14.482 35.984-16.78 53.464-.551 4.191 2.986 7.574 8.326 7.967 15.389 1.134 31.398 1.149 47.9-.163z" fill="url(#SVGID_13_)"/><path d="m28.757 194.403c-11.946 15.237-20.767 29.896-26.867 43.692-1.462 3.308.708 5.367 5.109 4.85 12.682-1.489 26.152-3.933 40.354-7.474 116.745-29.106 195.165-94.992 220.249-158.403 1.884-4.764 3.407-9.375 4.575-13.823-79.399 2.13-176.721 46.079-243.42 131.158z" fill="url(#SVGID_14_)"/><path d="m16.836 182.855c-9.095 17.998-14.482 35.984-16.78 53.464-.233 1.773.3 3.381 1.357 4.7l270.763-177.774c-99.153-17.007-204.554 19.115-255.34 119.61z" fill="url(#SVGID_15_)"/></g><path d="m74.815 110.161 123.374 89.302c45.025-30.33 69.779-72.747 73.622-118.318.514-6.092.631-12.064.367-17.9-69.762-11.966-142.614 2.369-197.363 46.916z" fill="url(#SVGID_16_)"/></g><g><g><path d="m454.397 188.083c-129.211-41.768-188.341-102.418-181.979-151.598.478-3.695 1.319-7.216 2.508-10.558 98.424 15.98 194.385 64.647 227.34 136.659 5.902 12.897 8.226 24.818 7.649 35.635-.138 2.593-4.093 3.646-9.31 2.48-15.036-3.36-30.49-7.537-46.208-12.618z" fill="url(#SVGID_17_)"/><path d="m488.913 166.22c9.094 12.028 15.265 22.902 18.948 32.56.883 2.315-1.541 2.952-5.706 1.499-12.003-4.185-24.614-9.135-37.756-14.918-108.032-47.531-173.192-106.54-187.266-150.159-1.057-3.277-1.79-6.37-2.207-9.275 76.297 22.001 163.208 73.13 213.987 140.293z" fill="url(#SVGID_18_)"/><path d="m502.265 162.586c5.902 12.897 8.226 24.817 7.649 35.635-.059 1.097-.83 1.898-2.061 2.392l-232.927-174.686c98.424 15.98 194.385 64.647 227.339 136.659z" fill="url(#SVGID_19_)"/></g><path d="m457.924 104.943-133.359 19.942c-38.611-29.497-55.723-60.76-52.147-88.4.478-3.695 1.319-7.216 2.508-10.558 69.247 11.243 137.274 38.666 182.998 79.016z" fill="url(#SVGID_20_)"/></g><path d="m165.004 283.003c-4.707 0-9.398-1.886-12.848-5.613-6.565-7.093-6.137-18.165.957-24.73l44.188-40.897c29.294-27.114 49.063-63.726 55.665-103.091l15.774-94.063c1.598-9.532 10.618-15.965 20.153-14.364 9.532 1.598 15.963 10.621 14.364 20.153l-8.317 49.597c-3.901 23.343 2.383 47.292 17.243 65.713l47.437 58.808c6.068 7.522 4.889 18.54-2.634 24.608-7.522 6.067-18.541 4.889-24.608-2.634l-47.437-58.808c-2.237-2.773-4.338-5.636-6.299-8.575-11.602 33.549-31.398 64.121-57.567 88.341l-44.189 40.897c-3.365 3.117-7.63 4.658-11.882 4.658z" fill="url(#SVGID_21_)"/><path d="m278.643 149.108c1.961 2.939 4.062 5.802 6.299 8.575l47.437 58.808c6.068 7.523 17.086 8.701 24.608 2.634 7.522-6.068 8.702-17.086 2.634-24.608l-47.437-58.808c-14.86-18.421-21.144-42.37-17.243-65.713z" fill="url(#SVGID_22_)"/></g></svg>